<?xml version="1.0" standalone="no"?>
<!DOCTYPE svg PUBLIC "-//W3C//DTD SVG 20010904//EN"
 "http://www.w3.org/TR/2001/REC-SVG-20010904/DTD/svg10.dtd">
<svg version="1.0" xmlns="http://www.w3.org/2000/svg"
 width="336.000000pt" height="336.000000pt" viewBox="0 0 336.000000 336.000000"
 preserveAspectRatio="xMidYMid meet">

<g transform="translate(0.000000,336.000000) scale(0.100000,-0.100000)"
fill="#000000" stroke="none">
<path d="M1548 3125 c-3 -3 -1 -31 4 -62 5 -31 8 -63 6 -71 -2 -8 -25 15 -53
52 -43 58 -54 66 -82 66 -18 0 -33 -3 -33 -7 0 -5 7 -63 16 -131 l17 -123 26
3 c26 3 26 4 23 78 -3 85 -8 86 68 -14 21 -27 43 -45 55 -46 43 0 44 8 27 138
-15 121 -16 122 -42 122 -15 0 -29 -2 -32 -5z"/>
<path d="M1735 3078 c-12 -29 -37 -84 -54 -121 -17 -38 -31 -71 -31 -73 0 -2
15 -4 34 -4 28 0 35 4 40 26 5 18 12 24 22 20 9 -3 29 -6 45 -6 21 0 29 -5 29
-18 0 -10 5 -23 12 -30 15 -15 58 -16 58 -1 0 16 -61 220 -72 242 -5 9 -20 17
-34 17 -21 0 -29 -9 -49 -52z m61 -105 c-2 -2 -13 -3 -24 -1 -20 3 -20 5 -5
38 l15 35 10 -34 c5 -18 7 -35 4 -38z"/>
<path d="M1990 3083 c-24 -8 -40 -34 -40 -64 0 -20 13 -38 52 -72 37 -32 49
-49 45 -61 -11 -28 -59 -17 -75 17 -15 32 -62 39 -62 9 0 -43 65 -92 123 -92
38 0 77 36 77 71 0 30 -20 55 -75 95 -34 24 -29 54 9 54 19 0 27 -7 32 -24 5
-21 28 -35 57 -36 11 0 9 38 -4 62 -18 34 -94 57 -139 41z"/>
<path d="M1091 3006 c-77 -34 -87 -42 -72 -64 7 -11 18 -10 60 8 28 13 53 21
55 19 2 -2 -6 -52 -17 -111 -13 -69 -18 -111 -12 -117 14 -13 179 61 183 81 5
27 -14 29 -59 8 -68 -30 -68 -30 -48 68 24 114 24 142 2 141 -10 0 -51 -15
-92 -33z"/>
<path d="M2216 3005 c-4 -11 11 -23 51 -43 l56 -29 -94 -53 c-85 -48 -108 -65
-109 -80 0 -5 165 -90 175 -90 2 0 9 9 15 20 10 19 6 23 -44 45 -31 14 -56 27
-56 29 0 3 42 28 93 57 85 48 106 64 107 80 0 7 -160 79 -176 79 -7 0 -14 -7
-18 -15z"/>
<path d="M848 2871 c-28 -25 -33 -36 -33 -73 1 -54 42 -120 92 -143 71 -34
153 18 153 96 0 41 -8 46 -41 28 -13 -6 -18 -16 -15 -26 10 -24 -22 -65 -47
-61 -27 4 -87 82 -87 113 0 32 36 58 63 43 14 -7 27 -7 46 2 l26 12 -24 19
c-36 29 -94 25 -133 -10z"/>
<path d="M2410 2823 c-30 -42 -63 -89 -73 -104 l-18 -27 65 -46 c68 -48 90
-55 99 -31 4 9 -9 26 -38 46 -25 18 -45 34 -45 36 0 2 7 15 16 29 l17 24 33
-25 c37 -28 59 -32 67 -11 4 9 -8 25 -29 41 -36 28 -42 46 -20 64 10 8 23 4
55 -20 43 -30 71 -33 71 -5 0 14 -120 106 -137 106 -4 0 -33 -35 -63 -77z"/>
<path d="M640 2695 c-11 -13 -3 -37 45 -140 52 -112 60 -123 77 -114 26 14 32
33 18 59 -11 20 -8 26 17 52 25 25 33 28 55 19 21 -8 29 -6 44 10 9 10 15 21
12 24 -10 10 -230 105 -243 105 -7 0 -18 -7 -25 -15z m138 -90 c1 -1 -7 -10
-17 -19 -19 -17 -20 -17 -35 13 -9 16 -16 33 -16 36 0 4 56 -20 68 -30z"/>
<path d="M2643 2590 c-51 -39 -93 -77 -93 -84 0 -7 7 -19 15 -26 13 -11 25 -5
77 36 34 27 58 42 53 34 -5 -8 -24 -38 -42 -67 -56 -88 -44 -104 55 -73 37 12
73 23 80 25 22 7 13 -1 -48 -45 -33 -24 -60 -49 -60 -56 0 -18 28 -37 42 -28
11 7 152 113 185 139 9 8 7 17 -11 39 l-24 28 -81 -27 c-45 -15 -84 -25 -86
-23 -3 2 16 34 40 71 25 36 45 73 45 80 0 15 -31 47 -46 47 -5 0 -51 -32 -101
-70z"/>
<path d="M483 2492 c-30 -30 -70 -98 -63 -105 11 -11 208 -137 213 -137 14 0
77 117 77 142 0 37 -32 68 -70 68 -16 0 -30 5 -30 10 0 6 -9 19 -20 30 -29 29
-73 26 -107 -8z m72 -61 c0 -34 -30 -51 -52 -29 -16 16 -16 19 2 38 24 27 50
22 50 -9z m93 -52 c4 -34 -20 -54 -47 -39 -25 13 -26 27 -4 52 23 25 47 19 51
-13z"/>
<path d="M2848 2307 c-60 -28 -108 -56 -108 -61 0 -5 14 -40 31 -78 22 -47 37
-68 50 -68 29 0 31 16 9 59 -24 48 -25 67 -4 75 27 11 33 7 54 -34 22 -42 26
-45 50 -30 12 8 12 14 -3 45 -22 45 -21 52 3 65 17 9 22 5 45 -40 25 -49 50
-64 61 -37 6 16 -56 150 -71 153 -5 1 -58 -21 -117 -49z"/>
<path d="M384 2270 c-56 -22 -83 -109 -48 -158 36 -52 153 -82 202 -51 28 18
52 62 52 97 0 77 -125 145 -206 112z m108 -67 c41 -20 53 -49 33 -79 -18 -28
-40 -30 -95 -8 -60 24 -75 59 -40 94 22 22 50 20 102 -7z"/>
<path d="M2938 2106 c-85 -22 -118 -35 -118 -46 0 -37 24 -96 50 -122 55 -54
177 -30 213 43 15 31 16 44 6 87 -5 28 -16 55 -22 60 -7 5 -57 -3 -129 -22z
m102 -71 c0 -40 -23 -59 -82 -70 -29 -6 -40 -3 -58 15 -35 35 -22 52 50 71 91
24 90 24 90 -16z"/>
<path d="M266 2008 c-33 -157 -33 -168 -2 -168 21 0 25 6 31 50 4 27 10 52 14
54 4 3 41 -29 81 -69 41 -41 82 -75 91 -75 13 0 20 20 33 90 18 96 16 110 -14
110 -14 0 -20 -10 -25 -42 -12 -73 -15 -72 -97 2 -81 74 -105 84 -112 48z"/>
<path d="M2965 1856 c-88 -11 -90 -12 -93 -38 -2 -16 0 -28 5 -28 27 0 257 30
260 34 3 2 2 14 -2 25 -7 24 -27 25 -170 7z"/>
<path d="M1660 1839 c0 -19 22 -53 58 -91 l36 -38 -132 0 -132 0 0 -25 0 -25
132 0 132 0 -36 -37 c-61 -65 -74 -103 -33 -103 14 0 25 5 25 10 0 20 80 97
120 115 47 21 56 59 16 69 -29 7 -123 90 -131 116 -7 21 -55 29 -55 9z"/>
<path d="M2880 1732 c0 -21 7 -32 25 -40 21 -10 25 -18 25 -56 0 -41 -2 -45
-30 -51 -25 -5 -30 -11 -30 -36 0 -17 5 -29 13 -28 6 0 66 19 132 42 108 38
120 45 123 67 3 24 -5 29 -119 75 -67 28 -126 52 -130 53 -5 2 -9 -9 -9 -26z
m160 -93 c12 -6 9 -10 -13 -18 -41 -16 -47 -14 -47 15 0 22 3 24 23 18 12 -3
29 -10 37 -15z"/>
<path d="M455 1560 c-3 -6 -3 -35 0 -65 l7 -55 -30 0 c-28 0 -30 3 -36 45 -6
39 -10 45 -31 45 -23 0 -24 -3 -22 -52 2 -47 0 -53 -19 -56 -19 -3 -23 3 -29
48 -7 51 -21 67 -49 57 -11 -4 -11 -18 1 -84 8 -43 17 -80 19 -82 6 -6 231 31
246 40 19 12 -12 163 -34 167 -9 2 -19 -2 -23 -8z"/>
<path d="M2862 1374 c-50 -35 -69 -125 -34 -157 10 -10 35 -17 54 -17 31 0 43
7 77 46 41 47 71 54 71 17 0 -25 -12 -40 -35 -44 -25 -5 -35 -59 -11 -59 54 0
96 49 96 114 0 25 -7 40 -26 55 -41 32 -63 26 -116 -30 -48 -51 -78 -60 -78
-22 0 25 13 43 41 57 13 6 25 22 27 34 3 17 -2 22 -20 22 -13 0 -34 -7 -46
-16z"/>
<path d="M470 1300 c-19 -4 -68 -13 -107 -20 -40 -6 -73 -15 -73 -19 0 -4 6
-16 14 -26 12 -17 17 -18 90 -3 42 8 76 14 76 12 0 -1 -29 -23 -65 -49 -68
-48 -70 -51 -55 -75 7 -12 21 -12 87 -3 43 6 79 10 81 8 2 -1 -27 -21 -63 -44
-36 -23 -65 -45 -65 -50 0 -18 12 -41 21 -41 5 0 56 32 113 72 103 71 110 81
84 114 -5 8 -25 8 -65 2 -86 -13 -91 -7 -29 37 30 22 56 45 56 52 1 42 -24 50
-100 33z"/>
<path d="M2766 1174 c-10 -27 -7 -33 27 -50 17 -9 33 -18 35 -19 1 -1 -7 -23
-19 -49 -17 -40 -19 -52 -9 -76 21 -50 88 -65 134 -29 24 19 82 117 74 124
-12 10 -217 115 -225 115 -6 0 -14 -7 -17 -16z m147 -113 c33 -17 33 -19 4
-55 -20 -25 -26 -27 -45 -17 -12 6 -22 18 -22 26 0 19 22 66 29 62 3 -1 18 -9
34 -16z"/>
<path d="M564 995 c-83 -49 -102 -129 -45 -186 38 -37 98 -40 154 -6 83 50
100 126 43 183 -43 43 -91 46 -152 9z m114 -37 c24 -24 14 -65 -25 -97 -47
-39 -89 -41 -105 -6 -14 30 7 66 55 95 37 23 58 25 75 8z"/>
<path d="M2633 946 c-34 -16 -63 -61 -63 -99 0 -60 86 -137 152 -137 54 0 108
51 108 102 0 90 -116 170 -197 134z m66 -51 c32 -16 81 -70 81 -89 0 -7 -9
-21 -20 -31 -24 -22 -60 -14 -99 23 -40 37 -47 66 -22 91 25 25 24 25 60 6z"/>
<path d="M704 776 l-89 -84 22 -23 22 -23 93 91 c80 79 90 93 79 107 -8 9 -19
16 -26 16 -7 0 -52 -38 -101 -84z"/>
<path d="M2432 750 c-35 -29 -61 -58 -59 -64 7 -21 43 -17 67 9 29 31 41 31
69 1 19 -20 21 -28 11 -45 -9 -17 -8 -22 4 -27 8 -3 20 -3 26 1 7 4 23 -7 39
-25 25 -30 29 -32 49 -19 28 17 28 21 -4 58 -14 17 -29 43 -33 58 -4 16 -14
28 -21 28 -8 0 -30 17 -50 39 l-36 38 -62 -52z"/>
<path d="M845 746 c-17 -12 -17 -16 -5 -31 10 -12 22 -15 48 -10 70 13 84 -46
26 -113 -19 -23 -44 -42 -53 -42 -26 0 -54 35 -47 58 8 24 -29 61 -45 45 -18
-18 -13 -82 7 -105 23 -24 67 -48 89 -48 61 0 145 90 145 155 0 76 -106 134
-165 91z"/>
<path d="M2265 639 c-38 -23 -71 -42 -72 -43 -2 -1 3 -11 11 -21 13 -18 15
-17 61 10 46 26 49 27 62 9 21 -29 16 -42 -27 -64 -27 -14 -38 -25 -34 -35 8
-19 25 -19 69 2 34 16 36 16 50 -3 13 -17 12 -21 -4 -34 -10 -8 -33 -23 -51
-33 -32 -17 -36 -40 -7 -45 19 -4 147 68 147 83 -1 15 -116 209 -126 212 -5 1
-40 -16 -79 -38z"/>
<path d="M1042 607 c-12 -13 -22 -31 -22 -41 0 -25 24 -67 54 -95 29 -27 33
-49 12 -57 -22 -8 -56 14 -56 36 0 21 -34 45 -50 35 -17 -10 -11 -51 11 -79
l21 -27 -31 -12 c-38 -14 -39 -25 -5 -33 26 -7 77 13 69 26 -3 4 13 7 34 6 26
0 47 6 60 18 35 32 25 73 -32 133 -32 34 -31 63 1 63 22 0 54 -32 50 -50 -4
-17 26 -34 47 -26 13 5 16 13 10 34 -19 77 -125 120 -173 69z"/>
<path d="M2060 549 c-44 -18 -70 -50 -70 -86 0 -37 -1 -37 34 -23 15 6 26 17
26 29 0 23 24 44 46 39 43 -8 82 -119 54 -153 -16 -20 -57 -19 -68 0 -7 13
-14 14 -36 6 -22 -9 -25 -14 -17 -30 15 -26 65 -44 105 -37 53 10 86 50 86
103 0 107 -81 185 -160 152z"/>
<path d="M1303 525 c-63 -27 -100 -133 -69 -194 19 -36 62 -61 105 -61 57 0
121 82 121 155 0 39 -32 83 -71 99 -47 19 -45 19 -86 1z m82 -59 c14 -20 14
-31 5 -68 -15 -53 -36 -78 -67 -78 -33 0 -47 39 -32 93 20 76 64 100 94 53z"/>
<path d="M1825 496 c-62 -10 -70 -14 -73 -34 -3 -23 -2 -23 45 -17 26 4 56 9
66 12 14 3 6 -19 -35 -101 -35 -70 -49 -109 -42 -116 6 -6 41 -6 102 2 87 11
92 13 92 35 0 25 -2 26 -72 14 -27 -4 -48 -6 -48 -4 0 2 20 44 45 93 25 49 45
99 45 110 0 23 -15 24 -125 6z"/>
<path d="M1511 479 c-4 -13 -10 -72 -13 -131 l-5 -108 33 0 33 0 3 73 3 72 43
-77 c38 -69 46 -78 71 -78 29 0 29 1 36 73 4 39 5 97 3 127 -3 51 -5 55 -28
55 -23 0 -25 -4 -28 -55 -4 -89 -10 -90 -53 -12 -22 40 -44 72 -49 72 -4 0
-15 3 -24 6 -11 4 -19 -2 -25 -17z"/>
</g>
</svg>
